<?xml version="1.0" standalone="no"?>
<!DOCTYPE svg PUBLIC "-//W3C//DTD SVG 20010904//EN"
 "http://www.w3.org/TR/2001/REC-SVG-20010904/DTD/svg10.dtd">
<svg version="1.0" xmlns="http://www.w3.org/2000/svg"
 width="222.000000pt" height="227.000000pt" viewBox="0 0 222.000000 227.000000"
 preserveAspectRatio="xMidYMid meet">

<g transform="translate(0.000000,227.000000) scale(0.100000,-0.100000)"
fill="#000000" stroke="none">
<path d="M1035 2090 c0 -41 4 -60 13 -60 7 0 12 15 12 43 l1 42 37 -42 c52
-59 62 -56 62 17 0 33 -4 60 -10 60 -5 0 -10 -19 -10 -42 l-1 -43 -40 43 c-54
57 -64 55 -64 -18z"/>
<path d="M902 2128 c-29 -6 -42 -14 -39 -22 3 -8 8 -33 12 -58 l7 -44 54 10
c33 5 54 14 54 22 0 10 -6 11 -26 4 -37 -14 -64 -12 -64 5 0 8 11 17 25 21 35
9 31 21 -5 16 -23 -3 -30 0 -30 12 0 11 13 18 40 22 22 4 40 10 40 15 0 11
-10 10 -68 -3z"/>
<path d="M1317 2108 c-31 -17 -20 -45 24 -62 22 -9 37 -21 34 -26 -9 -15 -37
-12 -62 5 -14 10 -24 12 -28 5 -6 -10 52 -40 78 -40 20 0 40 27 34 45 -4 8
-22 21 -42 29 -19 8 -35 20 -35 25 0 16 32 13 57 -4 13 -9 24 -11 28 -6 11 19
-63 44 -88 29z"/>
<path d="M723 2074 l-42 -15 20 -52 c11 -29 23 -54 25 -56 8 -8 85 33 95 50
14 27 11 38 -16 64 -28 29 -26 28 -82 9z m65 -16 c16 -16 15 -53 0 -65 -34
-26 -48 -23 -63 14 -19 45 -19 42 8 53 31 12 41 12 55 -2z"/>
<path d="M1460 2070 c0 -5 9 -14 20 -20 19 -10 19 -11 0 -55 -25 -58 -7 -69
21 -13 27 54 24 52 49 38 16 -9 21 -9 19 -1 -5 15 -109 63 -109 51z"/>
<path d="M968 1980 c-125 -22 -256 -78 -350 -146 -135 -99 -251 -270 -300
-440 -32 -113 -32 -305 0 -418 80 -278 300 -498 571 -567 382 -98 772 87 935
443 205 448 -39 973 -516 1108 -82 24 -264 34 -340 20z m357 -63 c116 -38 198
-91 295 -187 98 -97 154 -193 192 -326 31 -111 31 -277 0 -387 -70 -245 -245
-430 -487 -514 -73 -25 -92 -27 -230 -28 -143 0 -154 1 -238 31 -124 45 -189
87 -288 185 -76 74 -93 99 -137 190 -80 164 -100 312 -66 477 46 224 193 415
397 516 126 63 192 76 352 72 107 -2 144 -8 210 -29z"/>
<path d="M925 1880 c-95 -25 -138 -44 -217 -96 -177 -118 -290 -317 -305 -539
-3 -52 -2 -99 4 -109 8 -14 16 -8 55 41 100 129 178 280 178 347 0 32 6 53 19
67 21 22 41 18 41 -8 0 -12 3 -13 15 -3 23 19 35 2 35 -49 0 -47 1 -49 88
-132 167 -162 344 -289 525 -378 100 -49 300 -121 336 -121 29 0 72 131 86
256 13 121 -28 295 -97 412 -52 90 -170 201 -266 250 -155 81 -340 104 -497
62z"/>
<path d="M702 1354 c-2 -178 9 -534 17 -534 3 0 5 33 3 72 -2 40 -7 192 -11
338 -6 199 -8 230 -9 124z"/>
<path d="M755 1385 c5 -54 30 -151 79 -310 65 -206 75 -230 95 -233 18 -3 22
0 17 15 -3 10 -47 149 -97 308 -50 160 -93 292 -96 295 -3 3 -2 -31 2 -75z"/>
<path d="M790 1426 c0 -6 111 -368 166 -538 12 -37 21 -48 36 -48 15 0 18 4
13 18 -3 9 -43 132 -87 272 -57 180 -87 262 -104 280 -13 13 -24 21 -24 16z"/>
<path d="M605 1371 c-25 -57 -104 -511 -93 -534 16 -31 7 -69 94 422 14 79 23
145 21 147 -2 2 -12 -13 -22 -35z"/>
<path d="M885 1304 c106 -350 141 -449 162 -452 20 -3 19 5 -33 165 -29 92
-61 194 -70 225 -10 34 -27 67 -45 84 l-29 28 15 -50z"/>
<path d="M589 1056 c-42 -237 -44 -256 -27 -256 10 0 18 2 18 4 0 2 14 79 30
171 22 122 30 192 28 253 l-3 85 -46 -257z"/>
<path d="M538 1249 c-34 -58 -82 -396 -52 -367 4 5 74 391 70 395 -1 1 -9 -12
-18 -28z"/>
<path d="M960 1266 c0 -5 28 -99 62 -209 57 -180 76 -222 95 -204 3 4 -20 89
-52 189 -39 125 -65 191 -81 208 -13 13 -24 21 -24 16z"/>
<path d="M763 1170 c4 -36 26 -127 49 -202 35 -113 46 -138 61 -138 13 0 17 5
13 15 -3 9 -31 98 -62 198 -31 100 -59 184 -62 187 -3 3 -2 -24 1 -60z"/>
<path d="M1040 1189 c1 -8 25 -86 53 -174 39 -116 57 -161 70 -163 25 -5 22
10 -28 165 -31 97 -52 146 -70 163 -17 16 -25 19 -25 9z"/>
<path d="M472 1143 c-16 -31 -34 -150 -26 -175 5 -17 12 4 25 82 18 105 19
127 1 93z"/>
<path d="M1146 1053 c13 -43 32 -104 42 -135 12 -42 22 -58 35 -58 22 0 23 -3
-18 124 -31 99 -55 146 -76 146 -4 0 4 -35 17 -77z"/>
<path d="M1204 1053 c4 -9 19 -56 33 -105 21 -69 31 -88 45 -88 10 0 18 4 18
9 0 28 -55 177 -69 188 -23 17 -34 16 -27 -4z"/>
<path d="M774 970 c3 -30 6 -76 6 -101 0 -44 1 -46 25 -41 14 2 25 7 25 11 0
3 -14 47 -31 96 -30 90 -30 90 -25 35z"/>
<path d="M1282 1004 c42 -146 41 -144 64 -144 l22 0 -19 61 c-23 73 -24 76
-51 90 -18 10 -20 9 -16 -7z"/>
<path d="M1365 938 c13 -59 24 -78 44 -78 19 0 19 2 5 42 -24 70 -62 97 -49
36z"/>
<path d="M613 880 c-12 -76 -11 -92 8 -73 5 5 9 41 7 79 l-3 69 -12 -75z"/>
<path d="M1430 921 c0 -28 21 -61 40 -61 17 0 18 3 9 27 -13 35 -49 59 -49 34z"/>
<path d="M1500 884 c0 -18 20 -26 57 -22 27 3 26 4 -14 20 -37 14 -43 14 -43
2z"/>
<path d="M1270 744 c32 -6 334 -10 310 -3 -14 4 -92 7 -175 7 -82 0 -143 -2
-135 -4z"/>
<path d="M836 713 l-48 -4 6 -37 c3 -20 6 -49 6 -63 0 -22 8 -30 41 -43 215
-86 496 -45 676 98 l42 33 -77 6 c-102 9 -584 16 -646 10z"/>
<path d="M723 670 c0 -25 2 -35 4 -22 2 12 2 32 0 45 -2 12 -4 2 -4 -23z"/>
<path d="M1591 1958 c-59 -37 -74 -53 -42 -43 32 10 72 -13 69 -38 -2 -11 2
-22 7 -24 6 -2 15 25 21 62 6 44 6 66 -1 68 -5 2 -30 -9 -54 -25z m39 -12 c0
-2 -3 -12 -6 -20 -5 -13 -9 -14 -20 -5 -16 13 -9 29 12 29 8 0 14 -2 14 -4z"/>
<path d="M562 1939 c35 -63 41 -65 92 -33 25 16 42 32 40 36 -3 4 -23 -3 -44
-17 l-39 -25 -22 40 c-13 22 -29 40 -36 40 -11 0 -8 -10 9 -41z"/>
<path d="M1716 1922 c-4 -3 2 -14 11 -24 16 -17 15 -20 -16 -52 -18 -19 -30
-39 -27 -45 4 -6 21 6 40 27 33 36 35 36 54 19 11 -10 23 -14 26 -9 6 11 -80
93 -88 84z"/>
<path d="M435 1885 c-43 -42 -24 -105 31 -105 53 0 96 84 62 118 -20 20 -67
14 -93 -13z m83 -23 c4 -27 -23 -62 -48 -62 -21 0 -40 19 -40 41 0 48 82 67
88 21z"/>
<path d="M1799 1770 l-46 -36 30 -42 c17 -23 37 -42 45 -42 8 0 3 13 -17 37
-16 20 -28 40 -25 45 9 15 33 8 44 -12 6 -11 16 -18 21 -14 6 4 4 12 -5 23 -9
10 -16 23 -16 29 0 13 30 17 30 5 1 -14 40 -56 46 -50 3 3 -9 25 -28 50 l-33
44 -46 -37z"/>
<path d="M311 1754 c-38 -49 -17 -114 36 -114 25 0 73 53 73 80 0 26 -32 35
-47 14 -7 -10 -13 -23 -13 -28 0 -6 5 -3 11 7 13 22 29 22 29 -1 0 -22 -30
-52 -52 -52 -8 0 -23 9 -33 20 -17 18 -17 21 -1 45 10 14 24 29 32 32 7 3 11
9 8 14 -9 15 -22 10 -43 -17z"/>
<path d="M1765 657 c-50 -48 -60 -91 -27 -120 28 -26 48 -21 97 24 43 40 65
44 65 13 0 -23 -55 -74 -79 -74 -19 0 -20 -2 -9 -20 17 -26 24 -25 66 6 31 24
62 76 62 104 0 17 -39 50 -60 50 -11 0 -41 -19 -66 -42 -33 -31 -48 -38 -56
-30 -17 17 10 61 48 80 23 10 30 20 27 33 -8 28 -18 24 -68 -24z"/>
<path d="M375 578 c-15 -40 -33 -85 -40 -100 -11 -23 -10 -29 5 -43 10 -9 20
-12 21 -7 5 12 109 65 115 59 6 -6 -36 -111 -47 -118 -5 -3 2 -16 16 -29 14
-13 25 -18 25 -11 0 6 40 31 89 55 l90 44 -25 23 c-13 12 -24 17 -24 11 0 -6
-22 -23 -50 -37 -27 -14 -50 -22 -50 -17 0 23 33 102 43 102 6 0 0 11 -12 24
l-22 23 -55 -29 c-30 -17 -57 -28 -60 -25 -3 2 6 29 20 60 23 53 24 56 6 72
-17 15 -19 12 -45 -57z"/>
<path d="M1596 495 c-32 -25 -61 -46 -63 -49 -3 -2 19 -33 47 -68 29 -34 55
-71 59 -81 6 -16 8 -16 29 -1 l23 15 -26 31 c-26 31 -26 31 -7 51 18 17 24 18
58 7 22 -7 41 -17 44 -21 3 -5 18 2 33 14 28 22 28 22 5 24 -13 0 -35 6 -50
12 -25 9 -27 13 -16 35 9 20 8 30 -6 51 -25 38 -61 32 -130 -20z m97 -9 c4 -9
-8 -27 -29 -45 -40 -36 -47 -37 -65 -15 -12 14 -9 20 21 45 37 32 65 37 73 15z"/>
<path d="M680 417 c0 -12 -18 -28 -112 -99 l-46 -36 25 -11 c21 -10 27 -8 41
9 l17 21 44 -21 c39 -19 43 -24 38 -49 -5 -23 -1 -30 19 -40 14 -6 26 -11 27
-11 1 0 1 46 -1 101 -2 65 0 104 7 109 6 3 -4 14 -24 23 -25 12 -35 13 -35 4z
m10 -92 c0 -39 -5 -42 -35 -19 -20 15 -20 15 4 35 31 25 31 25 31 -16z"/>
<path d="M1413 391 c-49 -23 -63 -45 -63 -101 0 -77 66 -116 145 -85 55 20 75
47 75 98 0 49 -13 73 -50 92 -38 19 -56 19 -107 -4z m97 -41 c29 -29 26 -74
-6 -99 -34 -26 -68 -27 -94 -1 -43 43 -11 120 50 120 17 0 39 -9 50 -20z"/>
<path d="M793 269 c-17 -84 -18 -99 -6 -103 27 -11 31 -6 38 34 7 42 8 43 42
34 20 -5 45 -51 42 -78 -1 -12 22 -26 43 -26 16 0 16 3 -2 45 -16 37 -17 45
-5 45 21 0 55 36 55 58 0 35 -25 51 -106 70 l-81 19 -20 -98z m155 26 c11 -10
11 -15 -2 -28 -12 -12 -24 -13 -58 -5 -51 11 -52 11 -43 38 6 19 12 21 48 15
23 -4 48 -13 55 -20z"/>
<path d="M1257 343 c-12 -3 -15 -9 -9 -16 5 -7 17 -51 27 -98 18 -81 20 -85
42 -81 18 3 22 9 18 21 -4 9 -14 53 -23 98 -10 46 -21 82 -27 82 -5 -1 -18 -3
-28 -6z"/>
<path d="M1065 323 l-40 -4 6 -92 c4 -51 5 -95 2 -100 -2 -4 8 -7 24 -7 27 0
28 1 25 45 -4 42 -3 45 21 45 19 0 34 -11 54 -40 21 -30 35 -40 56 -40 l28 0
-30 37 -31 38 25 18 c28 20 32 53 12 81 -14 20 -76 27 -152 19z m125 -51 c0
-20 -28 -32 -72 -32 -44 0 -48 2 -48 24 0 22 5 25 43 28 42 3 77 -6 77 -20z"/>
</g>
</svg>
